<mxfile host="app.diagrams.net" modified="2023-07-05T22:27:30.728Z" agent="Mozilla/5.0 (Windows NT 10.0; Win64; x64) AppleWebKit/537.36 (KHTML, like Gecko) Chrome/114.0.0.0 Safari/537.36 Edg/114.0.1823.67" etag="0DF9buRNKoQkjmXJ7mj5" version="21.5.0" type="google">
  <diagram id="C5RBs43oDa-KdzZeNtuy" name="Page-1">
    <mxGraphModel grid="1" page="1" gridSize="10" guides="1" tooltips="1" connect="1" arrows="1" fold="1" pageScale="1" pageWidth="827" pageHeight="1169" math="0" shadow="0">
      <root>
        <mxCell id="WIyWlLk6GJQsqaUBKTNV-0" />
        <mxCell id="WIyWlLk6GJQsqaUBKTNV-1" parent="WIyWlLk6GJQsqaUBKTNV-0" />
        <mxCell id="zkfFHV4jXpPFQw0GAbJ--0" value="Categoria" style="swimlane;fontStyle=2;align=center;verticalAlign=top;childLayout=stackLayout;horizontal=1;startSize=26;horizontalStack=0;resizeParent=1;resizeLast=0;collapsible=1;marginBottom=0;rounded=0;shadow=0;strokeWidth=1;" vertex="1" parent="WIyWlLk6GJQsqaUBKTNV-1">
          <mxGeometry x="600" y="560" width="300" height="220" as="geometry">
            <mxRectangle x="230" y="140" width="160" height="26" as="alternateBounds" />
          </mxGeometry>
        </mxCell>
        <mxCell id="zkfFHV4jXpPFQw0GAbJ--1" value="- id: string" style="text;align=left;verticalAlign=top;spacingLeft=4;spacingRight=4;overflow=hidden;rotatable=0;points=[[0,0.5],[1,0.5]];portConstraint=eastwest;" vertex="1" parent="zkfFHV4jXpPFQw0GAbJ--0">
          <mxGeometry y="26" width="300" height="26" as="geometry" />
        </mxCell>
        <mxCell id="zkfFHV4jXpPFQw0GAbJ--2" value="- nome: string" style="text;align=left;verticalAlign=top;spacingLeft=4;spacingRight=4;overflow=hidden;rotatable=0;points=[[0,0.5],[1,0.5]];portConstraint=eastwest;rounded=0;shadow=0;html=0;" vertex="1" parent="zkfFHV4jXpPFQw0GAbJ--0">
          <mxGeometry y="52" width="300" height="26" as="geometry" />
        </mxCell>
        <mxCell id="-apTR_oCV3aua02-1Cz7-8" value="- tags: Array&lt;Tag&gt;" style="text;align=left;verticalAlign=top;spacingLeft=4;spacingRight=4;overflow=hidden;rotatable=0;points=[[0,0.5],[1,0.5]];portConstraint=eastwest;rounded=0;shadow=0;html=0;" vertex="1" parent="zkfFHV4jXpPFQw0GAbJ--0">
          <mxGeometry y="78" width="300" height="26" as="geometry" />
        </mxCell>
        <mxCell id="-apTR_oCV3aua02-1Cz7-9" style="text;align=left;verticalAlign=top;spacingLeft=4;spacingRight=4;overflow=hidden;rotatable=0;points=[[0,0.5],[1,0.5]];portConstraint=eastwest;rounded=0;shadow=0;html=0;" vertex="1" parent="zkfFHV4jXpPFQw0GAbJ--0">
          <mxGeometry y="104" width="300" height="26" as="geometry" />
        </mxCell>
        <mxCell id="zkfFHV4jXpPFQw0GAbJ--4" value="" style="line;html=1;strokeWidth=1;align=left;verticalAlign=middle;spacingTop=-1;spacingLeft=3;spacingRight=3;rotatable=0;labelPosition=right;points=[];portConstraint=eastwest;" vertex="1" parent="zkfFHV4jXpPFQw0GAbJ--0">
          <mxGeometry y="130" width="300" height="8" as="geometry" />
        </mxCell>
        <mxCell id="zkfFHV4jXpPFQw0GAbJ--5" value="+ editarNome(novoNome: string): void" style="text;align=left;verticalAlign=top;spacingLeft=4;spacingRight=4;overflow=hidden;rotatable=0;points=[[0,0.5],[1,0.5]];portConstraint=eastwest;" vertex="1" parent="zkfFHV4jXpPFQw0GAbJ--0">
          <mxGeometry y="138" width="300" height="26" as="geometry" />
        </mxCell>
        <mxCell id="-apTR_oCV3aua02-1Cz7-13" value="+ adicionarRemoverTag(acao: string, tag:Tag): void" style="text;align=left;verticalAlign=top;spacingLeft=4;spacingRight=4;overflow=hidden;rotatable=0;points=[[0,0.5],[1,0.5]];portConstraint=eastwest;" vertex="1" parent="zkfFHV4jXpPFQw0GAbJ--0">
          <mxGeometry y="164" width="300" height="26" as="geometry" />
        </mxCell>
        <mxCell id="-apTR_oCV3aua02-1Cz7-12" style="text;align=left;verticalAlign=top;spacingLeft=4;spacingRight=4;overflow=hidden;rotatable=0;points=[[0,0.5],[1,0.5]];portConstraint=eastwest;" vertex="1" parent="zkfFHV4jXpPFQw0GAbJ--0">
          <mxGeometry y="190" width="300" height="30" as="geometry" />
        </mxCell>
        <mxCell id="zkfFHV4jXpPFQw0GAbJ--6" value="Carrinho" style="swimlane;fontStyle=0;align=center;verticalAlign=top;childLayout=stackLayout;horizontal=1;startSize=26;horizontalStack=0;resizeParent=1;resizeLast=0;collapsible=1;marginBottom=0;rounded=0;shadow=0;strokeWidth=1;" vertex="1" parent="WIyWlLk6GJQsqaUBKTNV-1">
          <mxGeometry x="10" y="70" width="220" height="252" as="geometry">
            <mxRectangle x="130" y="380" width="160" height="26" as="alternateBounds" />
          </mxGeometry>
        </mxCell>
        <mxCell id="zkfFHV4jXpPFQw0GAbJ--7" value="- pedidos: Array&lt;Pedido&gt;" style="text;align=left;verticalAlign=top;spacingLeft=4;spacingRight=4;overflow=hidden;rotatable=0;points=[[0,0.5],[1,0.5]];portConstraint=eastwest;" vertex="1" parent="zkfFHV4jXpPFQw0GAbJ--6">
          <mxGeometry y="26" width="220" height="26" as="geometry" />
        </mxCell>
        <mxCell id="zkfFHV4jXpPFQw0GAbJ--8" value="- cupomDesconto: string | undefinedÂ " style="text;align=left;verticalAlign=top;spacingLeft=4;spacingRight=4;overflow=hidden;rotatable=0;points=[[0,0.5],[1,0.5]];portConstraint=eastwest;rounded=0;shadow=0;html=0;" vertex="1" parent="zkfFHV4jXpPFQw0GAbJ--6">
          <mxGeometry y="52" width="220" height="26" as="geometry" />
        </mxCell>
        <mxCell id="-apTR_oCV3aua02-1Cz7-15" value="- formaPagamento: Pagamento" style="text;align=left;verticalAlign=top;spacingLeft=4;spacingRight=4;overflow=hidden;rotatable=0;points=[[0,0.5],[1,0.5]];portConstraint=eastwest;rounded=0;shadow=0;html=0;" vertex="1" parent="zkfFHV4jXpPFQw0GAbJ--6">
          <mxGeometry y="78" width="220" height="26" as="geometry" />
        </mxCell>
        <mxCell id="-apTR_oCV3aua02-1Cz7-26" style="text;align=left;verticalAlign=top;spacingLeft=4;spacingRight=4;overflow=hidden;rotatable=0;points=[[0,0.5],[1,0.5]];portConstraint=eastwest;rounded=0;shadow=0;html=0;" vertex="1" parent="zkfFHV4jXpPFQw0GAbJ--6">
          <mxGeometry y="104" width="220" height="26" as="geometry" />
        </mxCell>
        <mxCell id="-apTR_oCV3aua02-1Cz7-25" style="text;align=left;verticalAlign=top;spacingLeft=4;spacingRight=4;overflow=hidden;rotatable=0;points=[[0,0.5],[1,0.5]];portConstraint=eastwest;rounded=0;shadow=0;html=0;" vertex="1" parent="zkfFHV4jXpPFQw0GAbJ--6">
          <mxGeometry y="130" width="220" height="26" as="geometry" />
        </mxCell>
        <mxCell id="-apTR_oCV3aua02-1Cz7-31" style="text;align=left;verticalAlign=top;spacingLeft=4;spacingRight=4;overflow=hidden;rotatable=0;points=[[0,0.5],[1,0.5]];portConstraint=eastwest;rounded=0;shadow=0;html=0;" vertex="1" parent="zkfFHV4jXpPFQw0GAbJ--6">
          <mxGeometry y="156" width="220" height="26" as="geometry" />
        </mxCell>
        <mxCell id="-apTR_oCV3aua02-1Cz7-24" style="line;html=1;strokeWidth=1;align=left;verticalAlign=middle;spacingTop=-1;spacingLeft=3;spacingRight=3;rotatable=0;labelPosition=right;points=[];portConstraint=eastwest;" vertex="1" parent="zkfFHV4jXpPFQw0GAbJ--6">
          <mxGeometry y="182" width="220" height="8" as="geometry" />
        </mxCell>
        <mxCell id="-apTR_oCV3aua02-1Cz7-30" value="+ somarTotalCarrinho(): number" style="text;align=left;verticalAlign=top;spacingLeft=4;spacingRight=4;overflow=hidden;rotatable=0;points=[[0,0.5],[1,0.5]];portConstraint=eastwest;rounded=0;shadow=0;html=0;" vertex="1" parent="zkfFHV4jXpPFQw0GAbJ--6">
          <mxGeometry y="190" width="220" height="26" as="geometry" />
        </mxCell>
        <mxCell id="zkfFHV4jXpPFQw0GAbJ--13" value="Tag" style="swimlane;fontStyle=0;align=center;verticalAlign=top;childLayout=stackLayout;horizontal=1;startSize=26;horizontalStack=0;resizeParent=1;resizeLast=0;collapsible=1;marginBottom=0;rounded=0;shadow=0;strokeWidth=1;" vertex="1" parent="WIyWlLk6GJQsqaUBKTNV-1">
          <mxGeometry x="120" y="840" width="200" height="130" as="geometry">
            <mxRectangle x="340" y="380" width="170" height="26" as="alternateBounds" />
          </mxGeometry>
        </mxCell>
        <mxCell id="zkfFHV4jXpPFQw0GAbJ--14" value="-id: string" style="text;align=left;verticalAlign=top;spacingLeft=4;spacingRight=4;overflow=hidden;rotatable=0;points=[[0,0.5],[1,0.5]];portConstraint=eastwest;" vertex="1" parent="zkfFHV4jXpPFQw0GAbJ--13">
          <mxGeometry y="26" width="200" height="26" as="geometry" />
        </mxCell>
        <mxCell id="-apTR_oCV3aua02-1Cz7-10" value="- nome: string" style="text;align=left;verticalAlign=top;spacingLeft=4;spacingRight=4;overflow=hidden;rotatable=0;points=[[0,0.5],[1,0.5]];portConstraint=eastwest;" vertex="1" parent="zkfFHV4jXpPFQw0GAbJ--13">
          <mxGeometry y="52" width="200" height="26" as="geometry" />
        </mxCell>
        <mxCell id="-apTR_oCV3aua02-1Cz7-11" value="- percentual_desconto: number" style="text;align=left;verticalAlign=top;spacingLeft=4;spacingRight=4;overflow=hidden;rotatable=0;points=[[0,0.5],[1,0.5]];portConstraint=eastwest;" vertex="1" parent="zkfFHV4jXpPFQw0GAbJ--13">
          <mxGeometry y="78" width="200" height="26" as="geometry" />
        </mxCell>
        <mxCell id="zkfFHV4jXpPFQw0GAbJ--15" value="" style="line;html=1;strokeWidth=1;align=left;verticalAlign=middle;spacingTop=-1;spacingLeft=3;spacingRight=3;rotatable=0;labelPosition=right;points=[];portConstraint=eastwest;" vertex="1" parent="zkfFHV4jXpPFQw0GAbJ--13">
          <mxGeometry y="104" width="200" height="8" as="geometry" />
        </mxCell>
        <mxCell id="zkfFHV4jXpPFQw0GAbJ--17" value="Produto" style="swimlane;fontStyle=0;align=center;verticalAlign=top;childLayout=stackLayout;horizontal=1;startSize=26;horizontalStack=0;resizeParent=1;resizeLast=0;collapsible=1;marginBottom=0;rounded=0;shadow=0;strokeWidth=1;" vertex="1" parent="WIyWlLk6GJQsqaUBKTNV-1">
          <mxGeometry x="550" y="130" width="370" height="320" as="geometry">
            <mxRectangle x="550" y="140" width="160" height="26" as="alternateBounds" />
          </mxGeometry>
        </mxCell>
        <mxCell id="zkfFHV4jXpPFQw0GAbJ--18" value="- id: string" style="text;align=left;verticalAlign=top;spacingLeft=4;spacingRight=4;overflow=hidden;rotatable=0;points=[[0,0.5],[1,0.5]];portConstraint=eastwest;" vertex="1" parent="zkfFHV4jXpPFQw0GAbJ--17">
          <mxGeometry y="26" width="370" height="26" as="geometry" />
        </mxCell>
        <mxCell id="zkfFHV4jXpPFQw0GAbJ--19" value="- categoria: Array&lt;Categoria&gt;" style="text;align=left;verticalAlign=top;spacingLeft=4;spacingRight=4;overflow=hidden;rotatable=0;points=[[0,0.5],[1,0.5]];portConstraint=eastwest;rounded=0;shadow=0;html=0;" vertex="1" parent="zkfFHV4jXpPFQw0GAbJ--17">
          <mxGeometry y="52" width="370" height="26" as="geometry" />
        </mxCell>
        <mxCell id="zkfFHV4jXpPFQw0GAbJ--20" value="- preco: number" style="text;align=left;verticalAlign=top;spacingLeft=4;spacingRight=4;overflow=hidden;rotatable=0;points=[[0,0.5],[1,0.5]];portConstraint=eastwest;rounded=0;shadow=0;html=0;" vertex="1" parent="zkfFHV4jXpPFQw0GAbJ--17">
          <mxGeometry y="78" width="370" height="26" as="geometry" />
        </mxCell>
        <mxCell id="zkfFHV4jXpPFQw0GAbJ--21" value="- quantidade_estoque:number" style="text;align=left;verticalAlign=top;spacingLeft=4;spacingRight=4;overflow=hidden;rotatable=0;points=[[0,0.5],[1,0.5]];portConstraint=eastwest;rounded=0;shadow=0;html=0;" vertex="1" parent="zkfFHV4jXpPFQw0GAbJ--17">
          <mxGeometry y="104" width="370" height="26" as="geometry" />
        </mxCell>
        <mxCell id="zkfFHV4jXpPFQw0GAbJ--22" value="- nome: string" style="text;align=left;verticalAlign=top;spacingLeft=4;spacingRight=4;overflow=hidden;rotatable=0;points=[[0,0.5],[1,0.5]];portConstraint=eastwest;rounded=0;shadow=0;html=0;" vertex="1" parent="zkfFHV4jXpPFQw0GAbJ--17">
          <mxGeometry y="130" width="370" height="26" as="geometry" />
        </mxCell>
        <mxCell id="-apTR_oCV3aua02-1Cz7-1" value="- descricao: string" style="text;align=left;verticalAlign=top;spacingLeft=4;spacingRight=4;overflow=hidden;rotatable=0;points=[[0,0.5],[1,0.5]];portConstraint=eastwest;rounded=0;shadow=0;html=0;" vertex="1" parent="zkfFHV4jXpPFQw0GAbJ--17">
          <mxGeometry y="156" width="370" height="26" as="geometry" />
        </mxCell>
        <mxCell id="-apTR_oCV3aua02-1Cz7-2" value="- numero_serie: string | undefined" style="text;align=left;verticalAlign=top;spacingLeft=4;spacingRight=4;overflow=hidden;rotatable=0;points=[[0,0.5],[1,0.5]];portConstraint=eastwest;rounded=0;shadow=0;html=0;" vertex="1" parent="zkfFHV4jXpPFQw0GAbJ--17">
          <mxGeometry y="182" width="370" height="26" as="geometry" />
        </mxCell>
        <mxCell id="zkfFHV4jXpPFQw0GAbJ--23" value="" style="line;html=1;strokeWidth=1;align=left;verticalAlign=middle;spacingTop=-1;spacingLeft=3;spacingRight=3;rotatable=0;labelPosition=right;points=[];portConstraint=eastwest;" vertex="1" parent="zkfFHV4jXpPFQw0GAbJ--17">
          <mxGeometry y="208" width="370" height="8" as="geometry" />
        </mxCell>
        <mxCell id="zkfFHV4jXpPFQw0GAbJ--24" value="+ adicionarEstoque(novaQuantidade: number): void" style="text;align=left;verticalAlign=top;spacingLeft=4;spacingRight=4;overflow=hidden;rotatable=0;points=[[0,0.5],[1,0.5]];portConstraint=eastwest;" vertex="1" parent="zkfFHV4jXpPFQw0GAbJ--17">
          <mxGeometry y="216" width="370" height="26" as="geometry" />
        </mxCell>
        <mxCell id="zkfFHV4jXpPFQw0GAbJ--25" value="+ editarDados(nome: string, preco: number, descricao: string):void" style="text;align=left;verticalAlign=top;spacingLeft=4;spacingRight=4;overflow=hidden;rotatable=0;points=[[0,0.5],[1,0.5]];portConstraint=eastwest;" vertex="1" parent="zkfFHV4jXpPFQw0GAbJ--17">
          <mxGeometry y="242" width="370" height="26" as="geometry" />
        </mxCell>
        <mxCell id="-apTR_oCV3aua02-1Cz7-4" value="+ editarCategoria(categoria?: string, acao: string): void" style="text;align=left;verticalAlign=top;spacingLeft=4;spacingRight=4;overflow=hidden;rotatable=0;points=[[0,0.5],[1,0.5]];portConstraint=eastwest;" vertex="1" parent="zkfFHV4jXpPFQw0GAbJ--17">
          <mxGeometry y="268" width="370" height="26" as="geometry" />
        </mxCell>
        <mxCell id="-apTR_oCV3aua02-1Cz7-3" value="+ aplicarDesconto(metodoDesconto: string, valor: number):number" style="text;align=left;verticalAlign=top;spacingLeft=4;spacingRight=4;overflow=hidden;rotatable=0;points=[[0,0.5],[1,0.5]];portConstraint=eastwest;" vertex="1" parent="zkfFHV4jXpPFQw0GAbJ--17">
          <mxGeometry y="294" width="370" height="26" as="geometry" />
        </mxCell>
        <mxCell id="-apTR_oCV3aua02-1Cz7-16" value="Pedido" style="swimlane;fontStyle=0;childLayout=stackLayout;horizontal=1;startSize=30;horizontalStack=0;resizeParent=1;resizeParentMax=0;resizeLast=0;collapsible=1;marginBottom=0;whiteSpace=wrap;html=1;" vertex="1" parent="WIyWlLk6GJQsqaUBKTNV-1">
          <mxGeometry x="343" y="440" width="140" height="230" as="geometry" />
        </mxCell>
        <mxCell id="-apTR_oCV3aua02-1Cz7-17" value="- id: string" style="text;strokeColor=none;fillColor=none;align=left;verticalAlign=middle;spacingLeft=4;spacingRight=4;overflow=hidden;points=[[0,0.5],[1,0.5]];portConstraint=eastwest;rotatable=0;whiteSpace=wrap;html=1;" vertex="1" parent="-apTR_oCV3aua02-1Cz7-16">
          <mxGeometry y="30" width="140" height="30" as="geometry" />
        </mxCell>
        <mxCell id="-apTR_oCV3aua02-1Cz7-18" value="- produto: Produto" style="text;strokeColor=none;fillColor=none;align=left;verticalAlign=middle;spacingLeft=4;spacingRight=4;overflow=hidden;points=[[0,0.5],[1,0.5]];portConstraint=eastwest;rotatable=0;whiteSpace=wrap;html=1;" vertex="1" parent="-apTR_oCV3aua02-1Cz7-16">
          <mxGeometry y="60" width="140" height="30" as="geometry" />
        </mxCell>
        <mxCell id="-apTR_oCV3aua02-1Cz7-19" value="- quantidade: number" style="text;strokeColor=none;fillColor=none;align=left;verticalAlign=middle;spacingLeft=4;spacingRight=4;overflow=hidden;points=[[0,0.5],[1,0.5]];portConstraint=eastwest;rotatable=0;whiteSpace=wrap;html=1;" vertex="1" parent="-apTR_oCV3aua02-1Cz7-16">
          <mxGeometry y="90" width="140" height="30" as="geometry" />
        </mxCell>
        <mxCell id="-apTR_oCV3aua02-1Cz7-20" style="text;strokeColor=none;fillColor=none;align=left;verticalAlign=middle;spacingLeft=4;spacingRight=4;overflow=hidden;points=[[0,0.5],[1,0.5]];portConstraint=eastwest;rotatable=0;whiteSpace=wrap;html=1;" vertex="1" parent="-apTR_oCV3aua02-1Cz7-16">
          <mxGeometry y="120" width="140" height="30" as="geometry" />
        </mxCell>
        <mxCell id="-apTR_oCV3aua02-1Cz7-22" value="+ somarTotalPedido(): number" style="text;strokeColor=default;fillColor=none;align=left;verticalAlign=middle;spacingLeft=4;spacingRight=4;overflow=hidden;points=[[0,0.5],[1,0.5]];portConstraint=eastwest;rotatable=0;whiteSpace=wrap;html=1;" vertex="1" parent="-apTR_oCV3aua02-1Cz7-16">
          <mxGeometry y="150" width="140" height="50" as="geometry" />
        </mxCell>
        <mxCell id="-apTR_oCV3aua02-1Cz7-23" style="text;strokeColor=default;fillColor=none;align=left;verticalAlign=middle;spacingLeft=4;spacingRight=4;overflow=hidden;points=[[0,0.5],[1,0.5]];portConstraint=eastwest;rotatable=0;whiteSpace=wrap;html=1;" vertex="1" parent="-apTR_oCV3aua02-1Cz7-16">
          <mxGeometry y="200" width="140" height="30" as="geometry" />
        </mxCell>
        <mxCell id="-apTR_oCV3aua02-1Cz7-32" value="Pagamento" style="swimlane;fontStyle=0;childLayout=stackLayout;horizontal=1;startSize=30;horizontalStack=0;resizeParent=1;resizeParentMax=0;resizeLast=0;collapsible=1;marginBottom=0;whiteSpace=wrap;html=1;" vertex="1" parent="WIyWlLk6GJQsqaUBKTNV-1">
          <mxGeometry x="320" y="80" width="200" height="270" as="geometry" />
        </mxCell>
        <mxCell id="-apTR_oCV3aua02-1Cz7-33" value="- id: string" style="text;strokeColor=none;fillColor=none;align=left;verticalAlign=middle;spacingLeft=4;spacingRight=4;overflow=hidden;points=[[0,0.5],[1,0.5]];portConstraint=eastwest;rotatable=0;whiteSpace=wrap;html=1;" vertex="1" parent="-apTR_oCV3aua02-1Cz7-32">
          <mxGeometry y="30" width="200" height="30" as="geometry" />
        </mxCell>
        <mxCell id="-apTR_oCV3aua02-1Cz7-34" value="- mÃ©todo: string" style="text;strokeColor=none;fillColor=none;align=left;verticalAlign=middle;spacingLeft=4;spacingRight=4;overflow=hidden;points=[[0,0.5],[1,0.5]];portConstraint=eastwest;rotatable=0;whiteSpace=wrap;html=1;" vertex="1" parent="-apTR_oCV3aua02-1Cz7-32">
          <mxGeometry y="60" width="200" height="30" as="geometry" />
        </mxCell>
        <mxCell id="-apTR_oCV3aua02-1Cz7-36" value="- quantidadeParcelas: number" style="text;strokeColor=none;fillColor=none;align=left;verticalAlign=middle;spacingLeft=4;spacingRight=4;overflow=hidden;points=[[0,0.5],[1,0.5]];portConstraint=eastwest;rotatable=0;whiteSpace=wrap;html=1;" vertex="1" parent="-apTR_oCV3aua02-1Cz7-32">
          <mxGeometry y="90" width="200" height="30" as="geometry" />
        </mxCell>
        <mxCell id="-apTR_oCV3aua02-1Cz7-37" value="- dataProcessamento: Date" style="text;strokeColor=none;fillColor=none;align=left;verticalAlign=middle;spacingLeft=4;spacingRight=4;overflow=hidden;points=[[0,0.5],[1,0.5]];portConstraint=eastwest;rotatable=0;whiteSpace=wrap;html=1;" vertex="1" parent="-apTR_oCV3aua02-1Cz7-32">
          <mxGeometry y="120" width="200" height="30" as="geometry" />
        </mxCell>
        <mxCell id="-apTR_oCV3aua02-1Cz7-38" value="- valorTotalPago: number" style="text;strokeColor=none;fillColor=none;align=left;verticalAlign=middle;spacingLeft=4;spacingRight=4;overflow=hidden;points=[[0,0.5],[1,0.5]];portConstraint=eastwest;rotatable=0;whiteSpace=wrap;html=1;" vertex="1" parent="-apTR_oCV3aua02-1Cz7-32">
          <mxGeometry y="150" width="200" height="30" as="geometry" />
        </mxCell>
        <mxCell id="-apTR_oCV3aua02-1Cz7-39" value="- adicional: number&amp;nbsp;" style="text;strokeColor=none;fillColor=none;align=left;verticalAlign=middle;spacingLeft=4;spacingRight=4;overflow=hidden;points=[[0,0.5],[1,0.5]];portConstraint=eastwest;rotatable=0;whiteSpace=wrap;html=1;" vertex="1" parent="-apTR_oCV3aua02-1Cz7-32">
          <mxGeometry y="180" width="200" height="30" as="geometry" />
        </mxCell>
        <mxCell id="-apTR_oCV3aua02-1Cz7-43" value="- status: string" style="text;strokeColor=none;fillColor=none;align=left;verticalAlign=middle;spacingLeft=4;spacingRight=4;overflow=hidden;points=[[0,0.5],[1,0.5]];portConstraint=eastwest;rotatable=0;whiteSpace=wrap;html=1;" vertex="1" parent="-apTR_oCV3aua02-1Cz7-32">
          <mxGeometry y="210" width="200" height="30" as="geometry" />
        </mxCell>
        <mxCell id="-apTR_oCV3aua02-1Cz7-40" value="+ consultarStatus(): string" style="text;strokeColor=none;fillColor=none;align=left;verticalAlign=middle;spacingLeft=4;spacingRight=4;overflow=hidden;points=[[0,0.5],[1,0.5]];portConstraint=eastwest;rotatable=0;whiteSpace=wrap;html=1;" vertex="1" parent="-apTR_oCV3aua02-1Cz7-32">
          <mxGeometry y="240" width="200" height="30" as="geometry" />
        </mxCell>
        <mxCell id="-apTR_oCV3aua02-1Cz7-42" value="" style="endArrow=none;html=1;rounded=0;exitX=-0.012;exitY=-0.071;exitDx=0;exitDy=0;exitPerimeter=0;entryX=1.008;entryY=-0.052;entryDx=0;entryDy=0;entryPerimeter=0;" edge="1" parent="-apTR_oCV3aua02-1Cz7-32" source="-apTR_oCV3aua02-1Cz7-40" target="-apTR_oCV3aua02-1Cz7-40">
          <mxGeometry width="50" height="50" relative="1" as="geometry">
            <mxPoint x="170" y="160" as="sourcePoint" />
            <mxPoint x="220" y="110" as="targetPoint" />
          </mxGeometry>
        </mxCell>
        <mxCell id="-apTR_oCV3aua02-1Cz7-45" value="abstract &amp;lt;&amp;lt;UsuÃ¡rio&amp;gt;&amp;gt;" style="swimlane;fontStyle=0;childLayout=stackLayout;horizontal=1;startSize=30;horizontalStack=0;resizeParent=1;resizeParentMax=0;resizeLast=0;collapsible=1;marginBottom=0;whiteSpace=wrap;html=1;" vertex="1" parent="WIyWlLk6GJQsqaUBKTNV-1">
          <mxGeometry x="-290" y="95" width="190" height="240" as="geometry" />
        </mxCell>
        <mxCell id="-apTR_oCV3aua02-1Cz7-46" value="# id: string" style="text;strokeColor=none;fillColor=none;align=left;verticalAlign=middle;spacingLeft=4;spacingRight=4;overflow=hidden;points=[[0,0.5],[1,0.5]];portConstraint=eastwest;rotatable=0;whiteSpace=wrap;html=1;" vertex="1" parent="-apTR_oCV3aua02-1Cz7-45">
          <mxGeometry y="30" width="190" height="30" as="geometry" />
        </mxCell>
        <mxCell id="-apTR_oCV3aua02-1Cz7-47" value="#&amp;nbsp;nome_completo: string" style="text;strokeColor=none;fillColor=none;align=left;verticalAlign=middle;spacingLeft=4;spacingRight=4;overflow=hidden;points=[[0,0.5],[1,0.5]];portConstraint=eastwest;rotatable=0;whiteSpace=wrap;html=1;" vertex="1" parent="-apTR_oCV3aua02-1Cz7-45">
          <mxGeometry y="60" width="190" height="30" as="geometry" />
        </mxCell>
        <mxCell id="-apTR_oCV3aua02-1Cz7-48" value="#&amp;nbsp;telefone: string" style="text;strokeColor=none;fillColor=none;align=left;verticalAlign=middle;spacingLeft=4;spacingRight=4;overflow=hidden;points=[[0,0.5],[1,0.5]];portConstraint=eastwest;rotatable=0;whiteSpace=wrap;html=1;" vertex="1" parent="-apTR_oCV3aua02-1Cz7-45">
          <mxGeometry y="90" width="190" height="30" as="geometry" />
        </mxCell>
        <mxCell id="-apTR_oCV3aua02-1Cz7-52" value="#&amp;nbsp;cpf: string" style="text;strokeColor=none;fillColor=none;align=left;verticalAlign=middle;spacingLeft=4;spacingRight=4;overflow=hidden;points=[[0,0.5],[1,0.5]];portConstraint=eastwest;rotatable=0;whiteSpace=wrap;html=1;" vertex="1" parent="-apTR_oCV3aua02-1Cz7-45">
          <mxGeometry y="120" width="190" height="30" as="geometry" />
        </mxCell>
        <mxCell id="-apTR_oCV3aua02-1Cz7-50" value="#&amp;nbsp;email: string" style="text;strokeColor=none;fillColor=none;align=left;verticalAlign=middle;spacingLeft=4;spacingRight=4;overflow=hidden;points=[[0,0.5],[1,0.5]];portConstraint=eastwest;rotatable=0;whiteSpace=wrap;html=1;" vertex="1" parent="-apTR_oCV3aua02-1Cz7-45">
          <mxGeometry y="150" width="190" height="30" as="geometry" />
        </mxCell>
        <mxCell id="-apTR_oCV3aua02-1Cz7-53" value="#&amp;nbsp;senha: string" style="text;strokeColor=none;fillColor=none;align=left;verticalAlign=middle;spacingLeft=4;spacingRight=4;overflow=hidden;points=[[0,0.5],[1,0.5]];portConstraint=eastwest;rotatable=0;whiteSpace=wrap;html=1;" vertex="1" parent="-apTR_oCV3aua02-1Cz7-45">
          <mxGeometry y="180" width="190" height="30" as="geometry" />
        </mxCell>
        <mxCell id="-apTR_oCV3aua02-1Cz7-49" style="text;strokeColor=none;fillColor=none;align=left;verticalAlign=middle;spacingLeft=4;spacingRight=4;overflow=hidden;points=[[0,0.5],[1,0.5]];portConstraint=eastwest;rotatable=0;whiteSpace=wrap;html=1;" vertex="1" parent="-apTR_oCV3aua02-1Cz7-45">
          <mxGeometry y="210" width="190" height="30" as="geometry" />
        </mxCell>
        <mxCell id="-apTR_oCV3aua02-1Cz7-55" value="Endereco" style="swimlane;fontStyle=0;childLayout=stackLayout;horizontal=1;startSize=30;horizontalStack=0;resizeParent=1;resizeParentMax=0;resizeLast=0;collapsible=1;marginBottom=0;whiteSpace=wrap;html=1;" vertex="1" parent="WIyWlLk6GJQsqaUBKTNV-1">
          <mxGeometry x="70" y="405" width="190" height="360" as="geometry" />
        </mxCell>
        <mxCell id="-apTR_oCV3aua02-1Cz7-56" value="- id: string" style="text;strokeColor=none;fillColor=none;align=left;verticalAlign=middle;spacingLeft=4;spacingRight=4;overflow=hidden;points=[[0,0.5],[1,0.5]];portConstraint=eastwest;rotatable=0;whiteSpace=wrap;html=1;" vertex="1" parent="-apTR_oCV3aua02-1Cz7-55">
          <mxGeometry y="30" width="190" height="30" as="geometry" />
        </mxCell>
        <mxCell id="-apTR_oCV3aua02-1Cz7-57" value="- logradouro: string" style="text;strokeColor=none;fillColor=none;align=left;verticalAlign=middle;spacingLeft=4;spacingRight=4;overflow=hidden;points=[[0,0.5],[1,0.5]];portConstraint=eastwest;rotatable=0;whiteSpace=wrap;html=1;" vertex="1" parent="-apTR_oCV3aua02-1Cz7-55">
          <mxGeometry y="60" width="190" height="30" as="geometry" />
        </mxCell>
        <mxCell id="-apTR_oCV3aua02-1Cz7-61" value="- numero: string" style="text;strokeColor=none;fillColor=none;align=left;verticalAlign=middle;spacingLeft=4;spacingRight=4;overflow=hidden;points=[[0,0.5],[1,0.5]];portConstraint=eastwest;rotatable=0;whiteSpace=wrap;html=1;" vertex="1" parent="-apTR_oCV3aua02-1Cz7-55">
          <mxGeometry y="90" width="190" height="30" as="geometry" />
        </mxCell>
        <mxCell id="-apTR_oCV3aua02-1Cz7-60" value="- bairro: string" style="text;strokeColor=none;fillColor=none;align=left;verticalAlign=middle;spacingLeft=4;spacingRight=4;overflow=hidden;points=[[0,0.5],[1,0.5]];portConstraint=eastwest;rotatable=0;whiteSpace=wrap;html=1;" vertex="1" parent="-apTR_oCV3aua02-1Cz7-55">
          <mxGeometry y="120" width="190" height="30" as="geometry" />
        </mxCell>
        <mxCell id="-apTR_oCV3aua02-1Cz7-59" value="- CEP: string" style="text;strokeColor=none;fillColor=none;align=left;verticalAlign=middle;spacingLeft=4;spacingRight=4;overflow=hidden;points=[[0,0.5],[1,0.5]];portConstraint=eastwest;rotatable=0;whiteSpace=wrap;html=1;" vertex="1" parent="-apTR_oCV3aua02-1Cz7-55">
          <mxGeometry y="150" width="190" height="30" as="geometry" />
        </mxCell>
        <mxCell id="-apTR_oCV3aua02-1Cz7-58" value="- cidade: string" style="text;strokeColor=none;fillColor=none;align=left;verticalAlign=middle;spacingLeft=4;spacingRight=4;overflow=hidden;points=[[0,0.5],[1,0.5]];portConstraint=eastwest;rotatable=0;whiteSpace=wrap;html=1;" vertex="1" parent="-apTR_oCV3aua02-1Cz7-55">
          <mxGeometry y="180" width="190" height="30" as="geometry" />
        </mxCell>
        <mxCell id="-apTR_oCV3aua02-1Cz7-62" value="- UF: string" style="text;strokeColor=none;fillColor=none;align=left;verticalAlign=middle;spacingLeft=4;spacingRight=4;overflow=hidden;points=[[0,0.5],[1,0.5]];portConstraint=eastwest;rotatable=0;whiteSpace=wrap;html=1;" vertex="1" parent="-apTR_oCV3aua02-1Cz7-55">
          <mxGeometry y="210" width="190" height="30" as="geometry" />
        </mxCell>
        <mxCell id="-apTR_oCV3aua02-1Cz7-67" value="- tipo: string" style="text;strokeColor=none;fillColor=none;align=left;verticalAlign=middle;spacingLeft=4;spacingRight=4;overflow=hidden;points=[[0,0.5],[1,0.5]];portConstraint=eastwest;rotatable=0;whiteSpace=wrap;html=1;" vertex="1" parent="-apTR_oCV3aua02-1Cz7-55">
          <mxGeometry y="240" width="190" height="30" as="geometry" />
        </mxCell>
        <mxCell id="-apTR_oCV3aua02-1Cz7-63" style="text;strokeColor=none;fillColor=none;align=left;verticalAlign=middle;spacingLeft=4;spacingRight=4;overflow=hidden;points=[[0,0.5],[1,0.5]];portConstraint=eastwest;rotatable=0;whiteSpace=wrap;html=1;" vertex="1" parent="-apTR_oCV3aua02-1Cz7-55">
          <mxGeometry y="270" width="190" height="30" as="geometry" />
        </mxCell>
        <mxCell id="-apTR_oCV3aua02-1Cz7-64" value="+ editarInformacoes(): void" style="text;strokeColor=none;fillColor=none;align=left;verticalAlign=middle;spacingLeft=4;spacingRight=4;overflow=hidden;points=[[0,0.5],[1,0.5]];portConstraint=eastwest;rotatable=0;whiteSpace=wrap;html=1;" vertex="1" parent="-apTR_oCV3aua02-1Cz7-55">
          <mxGeometry y="300" width="190" height="30" as="geometry" />
        </mxCell>
        <mxCell id="-apTR_oCV3aua02-1Cz7-66" style="text;strokeColor=none;fillColor=none;align=left;verticalAlign=middle;spacingLeft=4;spacingRight=4;overflow=hidden;points=[[0,0.5],[1,0.5]];portConstraint=eastwest;rotatable=0;whiteSpace=wrap;html=1;" vertex="1" parent="-apTR_oCV3aua02-1Cz7-55">
          <mxGeometry y="330" width="190" height="30" as="geometry" />
        </mxCell>
        <mxCell id="-apTR_oCV3aua02-1Cz7-65" value="" style="endArrow=none;html=1;rounded=0;exitX=-0.01;exitY=0.958;exitDx=0;exitDy=0;exitPerimeter=0;entryX=0.995;entryY=0.988;entryDx=0;entryDy=0;entryPerimeter=0;" edge="1" parent="-apTR_oCV3aua02-1Cz7-55" source="-apTR_oCV3aua02-1Cz7-63" target="-apTR_oCV3aua02-1Cz7-63">
          <mxGeometry width="50" height="50" relative="1" as="geometry">
            <mxPoint x="20" y="220" as="sourcePoint" />
            <mxPoint x="180" y="269" as="targetPoint" />
          </mxGeometry>
        </mxCell>
        <mxCell id="-apTR_oCV3aua02-1Cz7-68" value="Cliente" style="swimlane;fontStyle=0;childLayout=stackLayout;horizontal=1;startSize=30;horizontalStack=0;resizeParent=1;resizeParentMax=0;resizeLast=0;collapsible=1;marginBottom=0;whiteSpace=wrap;html=1;" vertex="1" parent="WIyWlLk6GJQsqaUBKTNV-1">
          <mxGeometry x="-170" y="480" width="150" height="210" as="geometry" />
        </mxCell>
        <mxCell id="-apTR_oCV3aua02-1Cz7-77" value="- enderecos: Array&amp;lt;Endereco&amp;gt;" style="text;strokeColor=none;fillColor=none;align=left;verticalAlign=middle;spacingLeft=4;spacingRight=4;overflow=hidden;points=[[0,0.5],[1,0.5]];portConstraint=eastwest;rotatable=0;whiteSpace=wrap;html=1;" vertex="1" parent="-apTR_oCV3aua02-1Cz7-68">
          <mxGeometry y="30" width="150" height="60" as="geometry" />
        </mxCell>
        <mxCell id="-apTR_oCV3aua02-1Cz7-83" style="text;strokeColor=none;fillColor=none;align=left;verticalAlign=middle;spacingLeft=4;spacingRight=4;overflow=hidden;points=[[0,0.5],[1,0.5]];portConstraint=eastwest;rotatable=0;whiteSpace=wrap;html=1;" vertex="1" parent="-apTR_oCV3aua02-1Cz7-68">
          <mxGeometry y="90" width="150" height="60" as="geometry" />
        </mxCell>
        <mxCell id="-apTR_oCV3aua02-1Cz7-82" style="text;strokeColor=none;fillColor=none;align=left;verticalAlign=middle;spacingLeft=4;spacingRight=4;overflow=hidden;points=[[0,0.5],[1,0.5]];portConstraint=eastwest;rotatable=0;whiteSpace=wrap;html=1;" vertex="1" parent="-apTR_oCV3aua02-1Cz7-68">
          <mxGeometry y="150" width="150" height="60" as="geometry" />
        </mxCell>
        <mxCell id="-apTR_oCV3aua02-1Cz7-84" value="" style="endArrow=none;html=1;rounded=0;exitX=-0.006;exitY=-0.041;exitDx=0;exitDy=0;exitPerimeter=0;" edge="1" parent="-apTR_oCV3aua02-1Cz7-68" source="-apTR_oCV3aua02-1Cz7-82">
          <mxGeometry width="50" height="50" relative="1" as="geometry">
            <mxPoint x="150" y="120" as="sourcePoint" />
            <mxPoint x="150" y="148" as="targetPoint" />
          </mxGeometry>
        </mxCell>
        <mxCell id="-apTR_oCV3aua02-1Cz7-72" value="Administrador" style="swimlane;fontStyle=0;childLayout=stackLayout;horizontal=1;startSize=30;horizontalStack=0;resizeParent=1;resizeParentMax=0;resizeLast=0;collapsible=1;marginBottom=0;whiteSpace=wrap;html=1;" vertex="1" parent="WIyWlLk6GJQsqaUBKTNV-1">
          <mxGeometry x="-370" y="480" width="140" height="210" as="geometry" />
        </mxCell>
        <mxCell id="-apTR_oCV3aua02-1Cz7-73" value="Item 1" style="text;strokeColor=none;fillColor=none;align=left;verticalAlign=middle;spacingLeft=4;spacingRight=4;overflow=hidden;points=[[0,0.5],[1,0.5]];portConstraint=eastwest;rotatable=0;whiteSpace=wrap;html=1;" vertex="1" parent="-apTR_oCV3aua02-1Cz7-72">
          <mxGeometry y="30" width="140" height="30" as="geometry" />
        </mxCell>
        <mxCell id="-apTR_oCV3aua02-1Cz7-74" value="Item 2" style="text;strokeColor=none;fillColor=none;align=left;verticalAlign=middle;spacingLeft=4;spacingRight=4;overflow=hidden;points=[[0,0.5],[1,0.5]];portConstraint=eastwest;rotatable=0;whiteSpace=wrap;html=1;" vertex="1" parent="-apTR_oCV3aua02-1Cz7-72">
          <mxGeometry y="60" width="140" height="30" as="geometry" />
        </mxCell>
        <mxCell id="-apTR_oCV3aua02-1Cz7-75" value="Item 3" style="text;strokeColor=none;fillColor=none;align=left;verticalAlign=middle;spacingLeft=4;spacingRight=4;overflow=hidden;points=[[0,0.5],[1,0.5]];portConstraint=eastwest;rotatable=0;whiteSpace=wrap;html=1;" vertex="1" parent="-apTR_oCV3aua02-1Cz7-72">
          <mxGeometry y="90" width="140" height="30" as="geometry" />
        </mxCell>
        <mxCell id="-apTR_oCV3aua02-1Cz7-80" style="text;strokeColor=none;fillColor=none;align=left;verticalAlign=middle;spacingLeft=4;spacingRight=4;overflow=hidden;points=[[0,0.5],[1,0.5]];portConstraint=eastwest;rotatable=0;whiteSpace=wrap;html=1;" vertex="1" parent="-apTR_oCV3aua02-1Cz7-72">
          <mxGeometry y="120" width="140" height="30" as="geometry" />
        </mxCell>
        <mxCell id="-apTR_oCV3aua02-1Cz7-79" style="text;strokeColor=none;fillColor=none;align=left;verticalAlign=middle;spacingLeft=4;spacingRight=4;overflow=hidden;points=[[0,0.5],[1,0.5]];portConstraint=eastwest;rotatable=0;whiteSpace=wrap;html=1;" vertex="1" parent="-apTR_oCV3aua02-1Cz7-72">
          <mxGeometry y="150" width="140" height="30" as="geometry" />
        </mxCell>
        <mxCell id="-apTR_oCV3aua02-1Cz7-78" style="text;strokeColor=none;fillColor=none;align=left;verticalAlign=middle;spacingLeft=4;spacingRight=4;overflow=hidden;points=[[0,0.5],[1,0.5]];portConstraint=eastwest;rotatable=0;whiteSpace=wrap;html=1;" vertex="1" parent="-apTR_oCV3aua02-1Cz7-72">
          <mxGeometry y="180" width="140" height="30" as="geometry" />
        </mxCell>
        <mxCell id="-apTR_oCV3aua02-1Cz7-81" value="" style="endArrow=none;html=1;rounded=0;exitX=0;exitY=0.5;exitDx=0;exitDy=0;entryX=1;entryY=0.5;entryDx=0;entryDy=0;" edge="1" parent="-apTR_oCV3aua02-1Cz7-72" source="-apTR_oCV3aua02-1Cz7-79" target="-apTR_oCV3aua02-1Cz7-79">
          <mxGeometry width="50" height="50" relative="1" as="geometry">
            <mxPoint x="330" y="120" as="sourcePoint" />
            <mxPoint x="380" y="70" as="targetPoint" />
          </mxGeometry>
        </mxCell>
        <mxCell id="-apTR_oCV3aua02-1Cz7-85" value="" style="endArrow=classic;html=1;rounded=0;exitX=0.25;exitY=0;exitDx=0;exitDy=0;" edge="1" parent="WIyWlLk6GJQsqaUBKTNV-1" source="-apTR_oCV3aua02-1Cz7-72" target="-apTR_oCV3aua02-1Cz7-49">
          <mxGeometry width="50" height="50" relative="1" as="geometry">
            <mxPoint x="80" y="510" as="sourcePoint" />
            <mxPoint x="130" y="460" as="targetPoint" />
          </mxGeometry>
        </mxCell>
        <mxCell id="-apTR_oCV3aua02-1Cz7-86" value="" style="endArrow=classic;html=1;rounded=0;exitX=0.562;exitY=-0.007;exitDx=0;exitDy=0;exitPerimeter=0;entryX=0.638;entryY=1.025;entryDx=0;entryDy=0;entryPerimeter=0;" edge="1" parent="WIyWlLk6GJQsqaUBKTNV-1" source="-apTR_oCV3aua02-1Cz7-68" target="-apTR_oCV3aua02-1Cz7-49">
          <mxGeometry width="50" height="50" relative="1" as="geometry">
            <mxPoint x="80" y="510" as="sourcePoint" />
            <mxPoint x="130" y="460" as="targetPoint" />
          </mxGeometry>
        </mxCell>
      </root>
    </mxGraphModel>
  </diagram>
</mxfile>
